<svg xmlns="http://www.w3.org/2000/svg" viewBox="0 0 64 64" role="img" aria-label="WhatsApp logo">
  <circle cx="32" cy="32" r="30" fill="#25D366"/>
  <path fill="#fff" d="M47.3 16.7A21.2 21.2 0 0 0 14 42.2L11.8 52 22 49.9A21.2 21.2 0 0 0 47.3 16.7Zm-15.2 29a17 17 0 0 1-8.6-2.3l-.6-.4-6 1.2 1.3-5.8-.4-.6a17 17 0 1 1 14.3 7.9Zm9.4-12.7c-.5-.3-3.1-1.5-3.6-1.7-.5-.2-.9-.3-1.2.3-.4.5-1.4 1.7-1.7 2-.3.4-.6.4-1.2.2-.5-.3-2.2-.8-4.2-2.6a15.8 15.8 0 0 1-2.9-3.6c-.3-.5 0-.8.2-1.1l.8-.9c.3-.3.4-.5.6-.9.2-.4.1-.7 0-1l-1.6-3.8c-.4-1-.8-.9-1.2-.9h-1c-.4 0-1 .1-1.5.7-.5.5-2 2-2 4.8 0 2.8 2 5.6 2.3 6 .3.3 4 6 9.6 8.5 1.3.6 2.4.9 3.2 1.2 1.4.4 2.6.4 3.5.2 1.1-.2 3.1-1.3 3.6-2.5.4-1.2.4-2.3.3-2.5-.2-.2-.5-.3-1-.6Z"/>
</svg>
